<svg viewBox="0 0 64 64" xml:space="preserve" xmlns="http://www.w3.org/2000/svg" enable-background="new 0 0 64 64"><path d="M57.7 23.3c0-.1 0-.1 0 0-.1-.7-.4-1.2-.8-1.5-.1 0-.1-.1-.2-.1-6.8-5-13.6-9.9-20.5-14.7-1-.7-1.9-1.4-2.9-2.1-.5-.4-1.5-.4-2 0-7 4.9-14 9.8-21 14.6l-3 2.1c-.1 0-.1.1-.1.1-.5.3-.8.8-.8 1.6v33.4c0 1.1.9 2 2 2h47.5c1.1 0 2-.9 2-2V27.4c-.1-1.3-.1-2.7-.2-4.1.1 0 0 0 0 0zm-18 31.4H10.2V24.3c6.7-4.6 13.4-9.3 20.1-13.9.7-.5 1.3-.9 2-1.4 6.5 4.7 13 9.3 19.5 14 .6.5 1.3.9 1.9 1.4V54.8c-4.6-.1-9.3-.1-14-.1z" fill="#40aa54" class="fill-000000"></path><path d="M40.8 41.2c1-3.4 2.1-6.8 3.1-10.2.4-1.2-.7-2.5-1.9-2.5H26.6c-.4-1.4-.9-2.9-1.3-4.3-.3-.8-1-1.5-1.9-1.5h-4.5c-2.6 0-2.6 4 0 4H22c1.5 4.8 3 9.7 4.5 14.5l.9 3.1c-2.1.7-3.4 2.4-3.4 4.5 0 2.6 2.1 4.8 4.8 4.8s4.8-2.1 4.8-4.8c0-.3 0-.5-.1-.8h1.1c0 .2-.1.5-.1.8 0 2.6 2.1 4.8 4.8 4.8s4.8-2.1 4.8-4.8-2.3-4.8-4.9-4.8h-8l-.4-1.3h8c.9 0 1.7-.6 2-1.5zm-1.5-8.7c-.6 2.1-1.3 4.1-1.9 6.2h-7.7c-.6-2.1-1.3-4.1-1.9-6.2h11.5zm-9.8 16.3c0 .4-.3.8-.8.8s-.7-.4-.7-.8.3-.8.8-.8.7.3.7.8zm10.5 0c0 .4-.3.8-.8.8s-.8-.3-.8-.8c0-.4.3-.8.8-.8s.8.3.8.8z" fill="#40aa54" class="fill-000000"></path></svg>